<svg width="220" height="50" viewBox="0 0 220 50" fill="none" xmlns="http://www.w3.org/2000/svg">
<path d="M70.6435 14.8138V10.3438H72.8035V18.1318H70.7275V16.7157H70.6435C70.4695 17.1717 70.1755 17.5378 69.7675 17.8138C69.3595 18.0898 68.8615 18.2278 68.2795 18.2278C67.7575 18.2278 67.3015 18.1078 66.9055 17.8738C66.5095 17.6398 66.2035 17.3037 65.9815 16.8657C65.7595 16.4277 65.6455 15.9058 65.6455 15.2998V10.3438H67.8055V14.9157C67.8055 15.3777 67.9315 15.7378 68.1775 16.0078C68.4235 16.2718 68.7475 16.4098 69.1555 16.4098C69.4135 16.4098 69.6595 16.3497 69.8875 16.2297C70.1155 16.1097 70.2955 15.9298 70.4395 15.6958C70.5775 15.4618 70.6495 15.1677 70.6435 14.8197V14.8138Z" fill="white"/>
<path d="M76.745 18.2762C76.247 18.2762 75.803 18.1862 75.419 18.0122C75.029 17.8382 74.723 17.5802 74.501 17.2382C74.279 16.8962 74.165 16.4642 74.165 15.9542C74.165 15.5222 74.243 15.1562 74.405 14.8622C74.561 14.5682 74.783 14.3342 75.053 14.1542C75.329 13.9742 75.641 13.8422 75.989 13.7462C76.337 13.6562 76.709 13.5902 77.093 13.5542C77.543 13.5062 77.909 13.4642 78.185 13.4222C78.461 13.3802 78.665 13.3142 78.791 13.2302C78.917 13.1462 78.977 13.0202 78.977 12.8522V12.8222C78.977 12.5042 78.875 12.2522 78.677 12.0782C78.473 11.9042 78.191 11.8142 77.825 11.8142C77.435 11.8142 77.129 11.8982 76.895 12.0722C76.667 12.2402 76.511 12.4562 76.439 12.7142L74.441 12.5522C74.543 12.0782 74.741 11.6702 75.041 11.3222C75.341 10.9742 75.725 10.7102 76.193 10.5242C76.667 10.3382 77.213 10.2422 77.831 10.2422C78.263 10.2422 78.677 10.2902 79.073 10.3922C79.469 10.4942 79.823 10.6502 80.135 10.8662C80.447 11.0762 80.687 11.3522 80.867 11.6822C81.047 12.0122 81.137 12.4142 81.137 12.8762V18.1262H79.091V17.0462H79.031C78.905 17.2922 78.737 17.5022 78.527 17.6882C78.317 17.8742 78.065 18.0182 77.771 18.1202C77.477 18.2222 77.135 18.2762 76.751 18.2762H76.745ZM77.363 16.7822C77.681 16.7822 77.963 16.7162 78.203 16.5902C78.443 16.4642 78.635 16.2902 78.773 16.0742C78.911 15.8582 78.983 15.6122 78.983 15.3422V14.5142C78.917 14.5562 78.821 14.5982 78.707 14.6342C78.593 14.6702 78.461 14.7002 78.317 14.7302C78.173 14.7602 78.029 14.7842 77.879 14.8082C77.735 14.8322 77.603 14.8502 77.483 14.8682C77.231 14.9042 77.009 14.9642 76.817 15.0482C76.625 15.1322 76.481 15.2402 76.373 15.3722C76.271 15.5102 76.217 15.6782 76.217 15.8822C76.217 16.1762 76.325 16.3982 76.541 16.5542C76.757 16.7102 77.027 16.7822 77.357 16.7822H77.363Z" fill="white"/>
<path d="M84.9657 13.6263V18.1263H82.8057V10.3383H84.8637V11.7123H84.9537C85.1277 11.2623 85.4157 10.9023 85.8177 10.6323C86.2257 10.3683 86.7177 10.2363 87.2937 10.2363C87.8337 10.2363 88.3077 10.3563 88.7097 10.5903C89.1117 10.8243 89.4237 11.1663 89.6457 11.6043C89.8677 12.0423 89.9817 12.5643 89.9817 13.1703V18.1263H87.8217V13.5543C87.8217 13.0803 87.7017 12.7023 87.4557 12.4383C87.2097 12.1683 86.8677 12.0363 86.4357 12.0363C86.1477 12.0363 85.8897 12.0963 85.6677 12.2223C85.4457 12.3483 85.2717 12.5283 85.1517 12.7683C85.0257 13.0083 84.9657 13.2903 84.9597 13.6263H84.9657Z" fill="white"/>
<path d="M95.1896 21.2102C94.4876 21.2102 93.8936 21.1142 93.3956 20.9222C92.8976 20.7302 92.5016 20.4722 92.2076 20.1422C91.9136 19.8122 91.7216 19.4462 91.6376 19.0382L93.6356 18.7682C93.6956 18.9242 93.7916 19.0682 93.9236 19.2062C94.0556 19.3442 94.2296 19.4522 94.4456 19.5362C94.6616 19.6202 94.9316 19.6622 95.2436 19.6622C95.7116 19.6622 96.1016 19.5482 96.4076 19.3202C96.7136 19.0922 96.8636 18.7082 96.8636 18.1742V16.7522H96.7736C96.6776 16.9682 96.5396 17.1722 96.3476 17.3642C96.1556 17.5562 95.9156 17.7122 95.6156 17.8382C95.3156 17.9582 94.9616 18.0182 94.5536 18.0182C93.9716 18.0182 93.4376 17.8802 92.9576 17.6102C92.4776 17.3402 92.0996 16.9202 91.8176 16.3562C91.5356 15.7922 91.3916 15.0842 91.3916 14.2202C91.3916 13.3562 91.5356 12.6002 91.8236 12.0122C92.1116 11.4182 92.4956 10.9802 92.9696 10.6862C93.4496 10.3922 93.9716 10.2422 94.5416 10.2422C94.9796 10.2422 95.3396 10.3142 95.6336 10.4642C95.9276 10.6142 96.1676 10.7942 96.3476 11.0102C96.5276 11.2262 96.6656 11.4422 96.7676 11.6522H96.8516V10.3442H98.9936V18.2042C98.9936 18.8642 98.8316 19.4222 98.5076 19.8662C98.1836 20.3102 97.7336 20.6462 97.1636 20.8742C96.5936 21.0962 95.9336 21.2102 95.1896 21.2102ZM95.2376 16.3922C95.5856 16.3922 95.8796 16.3082 96.1196 16.1282C96.3596 15.9542 96.5456 15.7022 96.6776 15.3782C96.8096 15.0542 96.8756 14.6582 96.8756 14.2022C96.8756 13.7462 96.8096 13.3502 96.6836 13.0142C96.5576 12.6782 96.3716 12.4142 96.1256 12.2282C95.8796 12.0422 95.5856 11.9522 95.2376 11.9522C94.8896 11.9522 94.5836 12.0482 94.3376 12.2402C94.0916 12.4322 93.9116 12.6962 93.7856 13.0322C93.6596 13.3682 93.5996 13.7582 93.5996 14.2022C93.5996 14.6462 93.6656 15.0422 93.7916 15.3662C93.9176 15.6902 94.1036 15.9422 94.3436 16.1222C94.5836 16.3022 94.8836 16.3862 95.2376 16.3862V16.3922Z" fill="white"/>
<path d="M58.5265 10.2734H58.5205V12.6854H58.5265V10.2734Z" fill="white"/>
<path d="M62.3062 14.0952C62.3362 14.0832 62.3722 14.0712 62.4022 14.0532C62.9662 13.7892 63.3922 13.4112 63.6922 12.9132C63.9922 12.4152 64.1362 11.8272 64.1362 11.1372C64.1362 10.4472 63.9922 9.85322 63.6982 9.34322C63.4042 8.83322 62.9842 8.44322 62.4262 8.16122C61.8682 7.88522 61.2022 7.74121 60.4162 7.74121H58.5262H58.1122C57.1402 7.74121 56.3482 8.52121 56.3242 9.48721C56.3242 9.50521 56.3242 9.5172 56.3242 9.53521V10.5012C56.3242 11.7072 57.2962 12.6792 58.5022 12.6792H58.5202V10.2672V9.53521H60.0022C60.4222 9.53521 60.7762 9.5952 61.0522 9.7212C61.3282 9.8472 61.5382 10.0272 61.6762 10.2612C61.8142 10.4952 61.8802 10.7892 61.8802 11.1312C61.8802 11.4732 61.8142 11.7552 61.6762 11.9892C61.5382 12.2172 61.3342 12.3912 61.0582 12.5052C60.7822 12.6192 60.4342 12.6792 60.0142 12.6792H58.5262V14.4432H60.1282L62.0962 18.1212H64.5202L62.3182 14.0892L62.3062 14.0952Z" fill="white"/>
<path d="M58.5252 14.4365H56.3232V18.1265H58.5252V14.4365Z" fill="#191919"/>
<path d="M56.3223 23.2559H61.6023L67.1763 36.8578H67.4163L72.9903 23.2559H78.2703V43.4999H74.1183V30.3239H73.9503L68.7123 43.4039H65.8863L60.6483 30.2758H60.4803V43.4999H56.3283V23.2559H56.3223Z" fill="white"/>
<path d="M91.4411 37.0374V28.3193H95.6531V43.4993H91.6091V40.7393H91.4531C91.1111 41.6273 90.5411 42.3414 89.7491 42.8874C88.9571 43.4274 87.9851 43.6973 86.8451 43.6973C85.8311 43.6973 84.9371 43.4693 84.1691 43.0073C83.4011 42.5453 82.7951 41.8913 82.3631 41.0393C81.9311 40.1873 81.7151 39.1733 81.7031 37.9853V28.3193H85.9151V37.2353C85.9211 38.1293 86.1611 38.8374 86.6351 39.3594C87.1091 39.8814 87.7451 40.1393 88.5431 40.1393C89.0531 40.1393 89.5271 40.0254 89.9651 39.7914C90.4091 39.5574 90.7631 39.2093 91.0391 38.7473C91.3151 38.2853 91.4471 37.7154 91.4411 37.0374Z" fill="white"/>
<path d="M99.0128 43.4997V28.3197H103.093V30.9657H103.249C103.525 30.0237 103.993 29.3097 104.641 28.8237C105.289 28.3377 106.045 28.0977 106.897 28.0977C107.107 28.0977 107.335 28.1097 107.581 28.1397C107.827 28.1637 108.037 28.2057 108.223 28.2477V31.9857C108.025 31.9257 107.749 31.8717 107.401 31.8297C107.053 31.7817 106.735 31.7577 106.441 31.7577C105.823 31.7577 105.271 31.8897 104.785 32.1597C104.299 32.4237 103.921 32.7957 103.639 33.2697C103.357 33.7437 103.219 34.2897 103.219 34.9077V43.4997H99.0068H99.0128Z" fill="white"/>
<path d="M112.513 26.3635C111.889 26.3635 111.349 26.1535 110.899 25.7395C110.449 25.3255 110.227 24.8215 110.227 24.2395C110.227 23.6575 110.449 23.1535 110.899 22.7335C111.349 22.3135 111.883 22.1035 112.501 22.1035C113.119 22.1035 113.671 22.3135 114.115 22.7275C114.559 23.1415 114.781 23.6455 114.781 24.2275C114.781 24.8095 114.559 25.3195 114.115 25.7335C113.671 26.1535 113.137 26.3635 112.507 26.3635H112.513ZM110.389 43.4995V28.3195H114.601V43.4995H110.389Z" fill="white"/>
<path d="M123.552 43.7517C122.4 43.7517 121.356 43.4517 120.426 42.8577C119.496 42.2637 118.758 41.3817 118.212 40.2177C117.666 39.0537 117.396 37.6257 117.396 35.9337C117.396 34.2417 117.678 32.7477 118.236 31.5897C118.794 30.4317 119.544 29.5677 120.474 28.9917C121.404 28.4157 122.43 28.1277 123.546 28.1277C124.398 28.1277 125.106 28.2717 125.676 28.5597C126.246 28.8477 126.708 29.2017 127.062 29.6277C127.416 30.0537 127.686 30.4677 127.866 30.8757H127.992V23.2617H132.192V43.5057H128.04V41.0757H127.86C127.662 41.4957 127.386 41.9157 127.026 42.3237C126.666 42.7377 126.204 43.0797 125.634 43.3497C125.064 43.6197 124.368 43.7577 123.552 43.7577V43.7517ZM124.89 40.3977C125.568 40.3977 126.144 40.2117 126.612 39.8397C127.086 39.4677 127.446 38.9457 127.698 38.2737C127.95 37.6017 128.076 36.8157 128.076 35.9097C128.076 35.0037 127.95 34.2237 127.698 33.5577C127.446 32.8917 127.086 32.3757 126.612 32.0157C126.138 31.6557 125.562 31.4697 124.884 31.4697C124.206 31.4697 123.612 31.6557 123.132 32.0337C122.652 32.4117 122.298 32.9277 122.052 33.5937C121.806 34.2597 121.686 35.0277 121.686 35.9097C121.686 36.7917 121.812 37.5717 122.058 38.2497C122.304 38.9277 122.664 39.4497 123.138 39.8337C123.612 40.2117 124.188 40.4037 124.884 40.4037L124.89 40.3977Z" fill="white"/>
<path d="M37.0499 13.662C37.4399 13.494 37.6799 13.086 37.6199 12.666C36.6179 5.50799 30.4799 0 23.0459 0C15.6119 0 9.47388 5.50799 8.47188 12.666C8.41188 13.086 8.65788 13.494 9.04188 13.662L21.6059 19.122C22.5239 19.518 23.5619 19.518 24.4739 19.122L37.0379 13.662H37.0499Z" fill="white"/>
<path d="M18.7783 8.20895C19.5603 8.20895 20.1943 7.575 20.1943 6.79296C20.1943 6.01093 19.5603 5.37695 18.7783 5.37695C17.9963 5.37695 17.3623 6.01093 17.3623 6.79296C17.3623 7.575 17.9963 8.20895 18.7783 8.20895Z" fill="#FB7927"/>
<path d="M27.3223 8.20895C28.1043 8.20895 28.7383 7.575 28.7383 6.79296C28.7383 6.01093 28.1043 5.37695 27.3223 5.37695C26.5402 5.37695 25.9062 6.01093 25.9062 6.79296C25.9062 7.575 26.5402 8.20895 27.3223 8.20895Z" fill="#FB7927"/>
<path d="M23.0214 14.8749C20.9574 14.8749 19.0614 13.9509 18.0474 12.4509C17.7474 12.0069 17.7834 11.3829 18.1914 11.0289C18.6834 10.6029 19.4214 10.7169 19.7634 11.2449C20.3814 12.1929 21.6294 12.7809 23.0214 12.7809C24.4134 12.7809 25.6254 12.2109 26.2494 11.2869C26.5374 10.8669 27.0714 10.6509 27.5454 10.8429C28.1754 11.1009 28.3914 11.8509 28.0374 12.3909C27.0354 13.9269 25.1154 14.8749 23.0214 14.8749Z" fill="#FB7927"/>
<path d="M24.21 23.9987V47.8847C24.21 48.5747 24.924 49.0427 25.554 48.7607L45.006 40.2167C45.66 39.9287 46.08 39.2807 46.08 38.5667V13.7327C46.08 13.0427 45.378 12.5807 44.742 12.8507L26.394 20.6867C25.068 21.2507 24.21 22.5527 24.21 23.9987Z" fill="white"/>
<path d="M21.87 23.9987V47.8847C21.87 48.5747 21.156 49.0427 20.526 48.7607L1.074 40.2167C0.42 39.9287 0 39.2807 0 38.5667V13.7327C0 13.0427 0.702 12.5807 1.338 12.8507L19.686 20.6867C21.012 21.2507 21.87 22.5527 21.87 23.9987Z" fill="white"/>
</svg>
