<?xml version="1.0" encoding="UTF-8"?>
<!DOCTYPE svg PUBLIC "-//W3C//DTD SVG 1.1//EN" "http://www.w3.org/Graphics/SVG/1.1/DTD/svg11.dtd">
<!-- Creator: CorelDRAW 2020 (64-Bit) -->
<svg xmlns="http://www.w3.org/2000/svg" xml:space="preserve" width="33.8666mm" height="33.8666mm" version="1.1" style="shape-rendering:geometricPrecision; text-rendering:geometricPrecision; image-rendering:optimizeQuality; fill-rule:evenodd; clip-rule:evenodd"
viewBox="0 0 3386.66 3386.66"
 xmlns:xlink="http://www.w3.org/1999/xlink"
 xmlns:xodm="http://www.corel.com/coreldraw/odm/2003">
 <defs>
  <style type="text/css">
   <![CDATA[
    .fil0 {fill:#272A2B;fill-rule:nonzero}
    .fil1 {fill:#EA7923;fill-rule:nonzero}
   ]]>
  </style>
 </defs>
 <g id="Layer_x0020_1">
  <metadata id="CorelCorpID_0Corel-Layer"/>
  <g id="_2157283733600">
   <path class="fil0" d="M1601.39 86.31c49.6,-2.45 99.32,-1.51 148.99,-1.27 271.28,8.51 540.51,90.4 769.02,237.43 132.18,84.38 250.91,189.66 351,310.36 103.48,125.35 185.05,268.74 239.87,421.77 50.42,138.85 78.1,285.5 87.5,432.65 1.06,47.76 4.82,95.55 0.49,143.26 0.21,41.34 -6.09,82.22 -10.3,123.23 -18.12,133.04 -51.56,264.45 -104.59,387.97 -38.72,93.38 -89.95,180.83 -144.61,265.59 -13.86,0.08 -27.72,0.08 -41.58,0.04 63.74,-94.98 122.33,-194.17 164.36,-300.84 78.34,-192.85 113.95,-402.84 103.52,-610.7 -7.81,-138.52 -33.73,-276.35 -78.91,-407.63 -51.23,-147.92 -126.46,-287.79 -224.34,-410.12 -202.3,-256.48 -492.09,-442.22 -809.86,-518.15 -295.23,-70.77 -611.44,-52.57 -895.64,54.95 -145.59,54.46 -281.17,134.27 -402.6,231.09 -78.29,63.9 -150.25,135.53 -214.81,213.3 -110.8,135.62 -196.29,291.92 -250.1,458.57 -83.16,259.79 -93.05,543.25 -23.59,807.32 22.57,89.14 54.5,175.73 93.35,259.05 37.61,77.48 81.6,151.81 129.44,223.4 -13.74,-0.2 -27.48,-0.32 -41.17,-0.16 -40.72,-61.78 -77.81,-126.01 -110.56,-192.33 -117.58,-240.61 -168.4,-513.56 -143.87,-780.25 16.52,-201.45 74.49,-399.95 172.45,-577.02 70.2,-129.48 161.75,-246.87 267.31,-349.37 106.88,-104.05 230.35,-190.44 362.49,-259.33 188.24,-94.98 396.22,-151.03 606.74,-162.81z"/>
   <g>
    <path class="fil0" d="M1742.94 255.74c14.56,1.51 29.72,-0.41 43.83,4.33 0.86,9.24 3.76,18.12 6.83,26.83 17.25,54.09 33.07,108.71 51.23,162.47 -14.89,-0.32 -29.77,-0.85 -44.36,-3.68 -1.93,-14.26 -7.49,-27.67 -10.59,-41.66 -23.47,0.9 -46.74,-2.08 -70.08,-3.92 -6.46,13.28 -10.06,28.25 -18.11,40.51 -13.09,0.37 -26.21,-0.12 -39.29,0.13 24.45,-62.64 54.82,-122.86 80.54,-185.01zm17.58 45.06l0 0c-8.95,23.06 -19.13,45.62 -28.05,68.72 16.11,0.54 32.14,1.8 48.25,2.29 -6.95,-23.63 -13.37,-47.38 -20.2,-71.01z"/>
   </g>
   <g>
    <path class="fil0" d="M1517.99 264.24c13.57,-3.76 28.74,-5.02 42.44,-2.41 27.72,59.78 55.85,119.39 84.02,178.96 -13.82,0.41 -27.52,2.04 -41.17,3.92 -7.08,-12.96 -11.99,-26.94 -19.26,-39.78 -22.45,3.93 -45.26,4.7 -67.87,7.12 -3.56,13.9 -6.34,27.96 -10.47,41.7 -13.57,1.35 -27.06,3.02 -40.64,4.46 11.82,-38.31 21.42,-77.32 32.3,-115.92 6.09,-26.2 16.44,-51.39 20.65,-78.05zm5.19 115.46l0 0c16.23,-3.02 32.67,-4.9 49.23,-4.49 -9.28,-22.45 -20.49,-44.16 -28.42,-67.14 -10.43,22.45 -13.45,47.96 -20.81,71.63z"/>
   </g>
   <path class="fil0" d="M1871.73 453.58c10.59,-60.67 21.96,-121.22 32.54,-181.89 12.52,1.88 25.03,3.8 37.54,5.84 17.78,44.73 39.04,88.07 56.01,133.08 10.3,-38.47 16.07,-78.17 23.67,-117.3 12.02,2.54 24.08,4.95 36.02,8.06 -13.82,59.9 -24.69,120.45 -37.41,180.59 -11.69,-3.68 -23.63,-6.46 -35.53,-9.28 -18.52,-44.08 -37.32,-88.07 -57.4,-131.45 -6.05,38.92 -14.1,77.56 -20.93,116.36 -11.57,-0.94 -23.02,-2.49 -34.51,-4.01z"/>
   <path class="fil0" d="M1346.06 298.22c15.42,-2.41 30.42,-6.87 45.59,-10.51 -17.09,31.98 -35,63.54 -50.37,96.33 30.95,21.99 61.82,44.32 91.79,67.75 3.68,3.72 11.08,5.6 10.47,12.02 -14.93,2.82 -29.61,6.66 -44.45,9.65 -25.18,-18.28 -49.55,-37.7 -73.71,-57.29 -6.91,5.16 -8.34,16.97 -12.39,25.03 3.39,17.46 10.01,34.22 14.88,51.39 -12.47,4.99 -25.47,8.5 -38.76,10.51 -13.82,-59.12 -33.36,-116.98 -47.39,-175.97 12.56,-3.56 25.07,-7.24 37.86,-9.94 3.11,26.5 13.54,51.35 18.03,77.52 17.14,-31.65 30.75,-65.13 48.45,-96.49z"/>
   <g>
    <path class="fil0" d="M1092 391.64c12.55,-6.09 24.86,-12.75 37.17,-19.34 45.05,47.43 92.15,92.86 136.51,140.94 -13.04,5.52 -25.06,13.61 -38.63,17.7 -9.45,-9.36 -17.71,-19.79 -26.09,-30.01 -22.04,8.71 -42.56,20.81 -64.02,30.83 1.18,13.16 2.9,26.29 4.57,39.41 -12.06,7.2 -24.4,13.98 -36.96,20.36 -2.08,-66.72 -9.61,-133.2 -12.55,-199.89zm36.68 30.14l0 0c-0.33,25.34 4.41,50.45 4.49,75.8 14.35,-8.26 29.52,-14.93 44.41,-22.12 -16.97,-17.25 -32.39,-36.02 -48.9,-53.68z"/>
   </g>
   <g>
    <path class="fil0" d="M2266.48 382.89c13.12,6.26 26.25,12.6 39.49,18.73 -9.11,65.42 -16.35,131.16 -24.49,196.7 -11.89,-6.75 -24.24,-12.67 -36.26,-19.22 3.68,-13.2 3.84,-26.94 5.4,-40.47 -20.53,-11.21 -41.26,-22.08 -62.15,-32.51 -9.24,9.45 -18.56,18.89 -27.11,29.03 -13.74,-1.92 -25.31,-10.3 -38.27,-14.64l-0.45 -2.28c48.94,-44.04 95.96,-90.12 143.84,-135.34zm-54.17 98.54l0 0c14.55,8.3 29.15,16.64 44.77,22.81 0.98,-24.98 5.64,-49.67 8.87,-74.45 -18.32,16.72 -34.43,35.86 -53.64,51.64z"/>
   </g>
   <path class="fil0" d="M890.93 507.43c39.86,-24.82 79.64,-49.88 119.63,-74.49 7.4,9.44 12.39,20.48 19.17,30.42 -14.8,8.05 -28.94,17.13 -43.25,25.96 27.96,41.37 52.74,84.8 80.38,126.42 -11.16,6.37 -22.33,17.99 -33.98,20.44 -25.63,-42.4 -53.35,-83.61 -77.52,-126.79 -15.78,7.65 -28.7,20.41 -44.4,27.89 -7.28,-9.57 -13.04,-20.16 -20.03,-29.85z"/>
   <g>
    <path class="fil0" d="M2410.15 460.33c31.24,25.11 71.06,43.67 89.58,81.2 27.76,58.3 -28.41,133.65 -91.75,127.15 -40.84,-4.62 -70.32,-36.43 -103.56,-57.32 34.18,-51.06 71.18,-100.17 105.73,-151.03zm-54.95 143.59l0 0c15.82,12.27 32.67,25.27 52.91,28.83 32.95,2.37 59.44,-29.97 61.28,-60.92 -1.84,-28.17 -27.43,-45.1 -48.73,-59.21 -22.9,29.61 -42.44,61.78 -65.46,91.3z"/>
   </g>
   <path class="fil0" d="M786.18 604.94c16.88,-34.83 59.57,-56.34 97.39,-44.07 -3.6,10.26 -6.67,20.73 -8.63,31.48 -17.95,-2.82 -37.57,0 -49.88,14.68 -10.88,8.62 -9.61,29.89 5.85,32.5 25.88,-3.68 46.57,-24.53 73.47,-25.06 32.17,-3.07 59.94,29.85 54.01,61 -8.3,48.82 -67.46,82.02 -113.09,60.35 3.31,-10.96 6.34,-22 9.69,-32.92 19.54,7.73 44.11,4.54 58.42,-11.89 9.94,-8.67 11.94,-29.24 -1.92,-35 -5.97,-4.13 -13.12,-0.08 -19.05,1.8 -19.95,8.5 -38.92,22.81 -61.78,20.81 -35.53,0.73 -59.08,-42.73 -44.48,-73.68z"/>
   <path class="fil0" d="M2556.6 562.63c10.88,9.77 21.18,20.24 32.59,29.43 -7.36,29.81 -15.09,59.57 -21.87,89.54 24.24,-8.99 49.18,-16.07 73.3,-25.39 4.83,-1.18 11.41,-5.84 15.58,-0.69 9.57,8.42 17.99,18.15 28.7,25.31 -40.84,17.29 -85.08,25.92 -127.32,39.41 -18.64,14.6 -34.71,32.34 -52.17,48.33 -8.95,-9.65 -18.43,-18.77 -28.57,-27.11 15.37,-16.11 32.83,-30.01 49.51,-44.69 10.3,-44.6 22.69,-88.97 30.25,-134.14z"/>
   <path class="fil0" d="M721.78 664.68c24.9,20.03 47.96,42.27 72.25,63.08 14.31,12.55 31.77,24.08 37.69,43.26 8.1,22.32 -1.34,46.61 -14.47,64.97 -11.53,15.62 -25.43,30.87 -44.07,37.73 -18.4,5.4 -39.95,2.17 -54.63,-10.71 -33.2,-27.23 -63.78,-57.44 -96.53,-85.16 7.52,-11.37 17.54,-20.73 25.64,-31.65 24.41,21.92 48.86,43.83 73.35,65.66 10.91,9.61 21.05,22.04 36.22,24.7 26.41,1.1 51.07,-34.34 32.26,-56.59 -16.19,-17.66 -35.53,-32.13 -53.36,-48.16 -13.82,-11.82 -26.25,-25.39 -41.33,-35.73 7.56,-11.66 18.52,-20.45 26.98,-31.4z"/>
   <g>
    <path class="fil0" d="M2539.76 799.72c60.96,-25.1 124.33,-46.4 186.48,-69.34 7.11,11.33 15.86,21.51 25.02,31.24 -33.65,57.93 -66.85,116.19 -100.74,174 -9.53,-4.53 -14.6,-17.41 -22.24,-25.3 3.72,-15.38 14.51,-28.21 21.46,-42.4 -15.95,-17.01 -28.99,-36.47 -44.44,-53.93 -13.25,5.07 -25.96,11.49 -39.5,15.9 -8.09,-10.58 -17.7,-19.82 -26.04,-30.17zm100.13 2.33l0 0c9.69,11.45 18.4,23.72 27.88,35.37 12.1,-19.95 24.82,-39.54 36.43,-59.78 -21.55,7.81 -43.75,14.23 -64.31,24.41z"/>
   </g>
   <path class="fil0" d="M2772.36 851.32c10.54,-5.89 19.66,-14.23 30.95,-18.89 20.73,39.37 45.83,76.41 67.54,115.34 -10.47,5.23 -20.16,13.94 -31.36,16.43 -6.83,-12.1 -12.39,-24.94 -20.48,-36.26 -42.32,24.82 -85.29,48.41 -127.85,72.77 -8.14,-11.24 -16.77,-22.52 -21.79,-35.57 38.67,-18.35 75.35,-40.68 113.17,-60.79 5.39,-3.31 12.55,-5.36 15.25,-11.74 -10.02,-12.79 -16.6,-27.76 -25.43,-41.29z"/>
   <g>
    <path class="fil0" d="M557.5 867.14c11.45,-21.38 38.03,-35.49 61.86,-27.39 24.45,6.5 48,27.88 47.8,54.66 2.17,24.57 -13.86,44.98 -24.74,65.54 17.5,10.71 35,21.38 52.58,31.97 -8.26,10.72 -12.88,23.76 -21.71,34.1 -49.22,-33.28 -100.94,-63.04 -151.19,-94.85 11.08,-21.71 23.34,-42.85 35.4,-64.03zm27.11 18.61l0 0c-6.79,8.29 -14.68,18.11 -16.35,28.49 15.9,10.43 32.95,19.18 48.57,30.22 6.91,-14.27 17.54,-29.16 13.74,-45.84 -3.85,-19.66 -32.55,-28.21 -45.96,-12.87z"/>
   </g>
   <g>
    <path class="fil0" d="M494.54 1007.99c35.98,-15.94 85.17,13.98 82.79,54.46 26.17,-4.21 52.58,-4.9 79.04,-4.45 -4.66,12.38 -9.49,24.69 -14.35,37 -24.21,0 -48.13,4.7 -72.29,4 -3.88,7.65 -7.52,15.42 -10.63,23.43 19.75,8.55 40.23,16.07 59.24,26 -3.8,12.19 -7.97,24.25 -12.8,36.06 -56.05,-25.55 -112.72,-50.2 -167.83,-77.6 8.05,-20.48 16.23,-40.96 24,-61.57 5.85,-15.9 17.01,-30.46 32.83,-37.33zm1.84 42.85l0 0c-8.79,9.81 -11.53,23.22 -17.25,34.83 17.62,6.71 34.46,15.34 52,22.37 5.03,-12.35 12.31,-24.33 13.21,-37.86 -1.14,-21.87 -32.01,-34.47 -47.96,-19.34z"/>
   </g>
   <g>
    <path class="fil0" d="M2841.86 1034.57c24.41,-2.09 48.98,0.41 73.35,-2.17 6.09,12.18 10.43,25.15 16.56,37.33 -48.04,45.18 -96.08,90.4 -144.29,135.37 -4.53,-12.26 -9.44,-24.41 -13.61,-36.8 9.73,-10.05 20.81,-18.76 30.5,-28.9 -10.02,-21.59 -20.12,-43.18 -28.66,-65.34 -14.48,0.37 -28.91,0.45 -43.34,0.41 -5.6,-12.18 -12.84,-23.71 -16.23,-36.79 41.95,0.49 83.85,-0.25 125.72,-3.11zm-30.38 36.02l0 0c6.1,15.37 14.72,29.72 19.42,45.67 18.24,-15.74 36.47,-31.61 52.62,-49.56 -23.91,2.99 -47.96,4.05 -72.04,3.89z"/>
   </g>
   <path class="fil0" d="M411.26 1190.67c2.16,-8.3 3.23,-17.09 8.05,-24.41 10.55,2.29 20.89,5.56 31.61,7.2 -7.24,25.79 -11.62,52.49 -21.1,77.64 13.25,4.62 27.39,6.21 40.52,11.36 5.6,-21.91 10.87,-43.87 16.39,-65.78 9.73,3.02 19.67,5.48 29.6,8.05 -5.15,21.8 -11.98,43.26 -15.49,65.38 13.98,-0.08 28.58,9.77 41.54,7.24 4.78,-22.98 11.12,-45.63 14.8,-68.81 11.85,1.59 23.38,4.82 34.67,8.79 -10.14,35.69 -16.76,72.28 -26.17,108.14 -58.79,-14.64 -117.38,-30.26 -176.42,-44 7.4,-30.25 15.17,-60.42 22,-90.8z"/>
   <path class="fil0" d="M2792.43 1225.99c61.25,-9.77 122.17,-21.09 182.96,-33.24 2.17,16.28 8.43,31.69 10.27,48.04 -34.14,20.81 -66.85,44.49 -97.64,69.96 39.09,5.97 77.77,14.8 116.69,21.75 2.41,15.17 4.62,30.54 9.36,45.26 -57.4,14.35 -114.89,28.42 -172.54,41.7 -3.02,-12.71 -6.05,-25.39 -8.54,-38.18 34.83,-6.42 69.1,-15.7 103.89,-22.08l4.7 -3.03c-38.39,-9.36 -77.76,-14.72 -116.11,-24.57 1.55,-7.77 2.69,-15.62 4.41,-23.35 30.22,-24.44 63.13,-45.7 93.63,-69.87 -39.5,8.34 -78.91,17.21 -118.53,25.15 -4.29,-12.52 -8.17,-25.11 -12.55,-37.54z"/>
   <g>
    <path class="fil0" d="M393.8 1353.35c28.78,-22.2 76.82,-12.84 93.14,20.28 11.53,21.3 4.21,45.87 3.27,68.65 19.05,0.12 37.82,4.37 56.87,4.45 -1.6,13.25 -3.31,26.54 -4.38,39.87 -59.44,-7.61 -119.38,-12.31 -178.87,-19.91 -0.41,-19.22 5.03,-37.86 4.74,-57.04 0.98,-20.85 7.36,-43.67 25.23,-56.3zm20.24 32.06l0 0c-13.9,11.53 -13.25,30.21 -16.93,46.28 20.16,3.76 40.85,4.5 61.25,7.19 0.45,-13.65 3.39,-27.72 -0.66,-41.09 -7.15,-16.1 -28.98,-21.01 -43.66,-12.38z"/>
   </g>
   <g>
    <path class="fil0" d="M2846.15 1445.67c59.82,22.98 119.31,47.14 179.94,67.87 0.82,13.29 0.49,26.62 1.15,39.91 -60.51,25.83 -119.76,54.7 -180.92,78.94 0.98,-12.63 1.47,-25.26 1.06,-37.9 11.82,-6.33 24.61,-10.46 36.63,-16.35 -2,-26.09 -0.45,-52.25 -1.34,-78.38 -10.06,-7.68 -24.37,-9.48 -36.11,-14.63 -0.65,-13.17 -0.37,-26.29 -0.41,-39.46zm69.51 64.56l0 0c-0.12,18.27 0.61,36.51 0.65,54.79 22.78,-8.88 44.9,-19.3 67.34,-29.03 -22.73,-8.43 -45.09,-17.79 -67.99,-25.76z"/>
   </g>
   <g>
    <path class="fil0" d="M471.36 2505.46c28.21,-0.04 56.42,0.04 84.63,-0.04 43.59,127.03 88.6,253.61 132.06,380.73 -26.74,-1.84 -54.42,1.76 -80.58,-1.6 -8.59,-26.9 -16.81,-53.93 -26.09,-80.62 -45.01,0 -90.03,0 -135.04,0 -10.1,26.29 -17.05,53.72 -26.58,80.13 -25.43,4.42 -53.07,0.04 -79.32,2.17 44.04,-126.79 88.11,-253.57 130.92,-380.77zm-4.01 230.76l0 0c30.95,0.37 61.99,-0.82 92.94,0.69 -14.27,-47.14 -31.73,-93.25 -45.96,-140.39 -17.17,45.95 -31.69,93.38 -46.98,139.7z"/>
   </g>
   <g>
    <path class="fil0" d="M736.46 2505.3c44.93,0.37 89.87,0.08 134.76,0.16 46.49,2.05 94.98,17.83 126.01,54.14 36.59,43.25 48.41,103.07 42.52,158.39 -3.35,42.52 -17.7,85.98 -48.49,116.64 -33.85,35.57 -84.02,50.54 -132.06,51.11 -40.93,0.16 -81.85,-0.08 -122.74,0.16 0.04,-126.87 0,-253.73 0,-380.6zm73.64 69.75l0 0c-0.13,80.91 0,161.82 -0.04,242.74 37.04,-1.15 77.39,2.65 110.14,-18.16 31.36,-19.78 42.68,-58.71 45.22,-93.67 1.55,-38.92 -5.32,-84.63 -38.96,-109.28 -33.65,-23.92 -77.07,-21.67 -116.36,-21.63z"/>
   </g>
   <path class="fil0" d="M1040 2505.09c31.07,0.58 62.14,0.5 93.26,0.13 25.02,49.18 49.14,98.78 73.34,148.37 25.07,-49.23 49.8,-98.62 74.25,-148.13 29.36,-0.12 58.75,0.33 88.11,-0.37 -43.05,75.48 -85.12,151.53 -127.85,227.21 0.41,51.22 -0.12,102.49 0.25,153.73 -24.49,-0.46 -48.98,-0.21 -73.47,-0.13 0.73,-47.88 0.08,-95.75 0.44,-143.63 1.19,-9.61 -4.33,-17.74 -8.7,-25.63 -39.91,-70.49 -79.08,-141.43 -119.63,-211.55z"/>
   <g>
    <path class="fil0" d="M1464.35 2505.22c28.37,0.49 56.79,0.16 85.16,0.24 43.67,126.99 88.97,253.45 132.22,380.57 -27.23,-0.41 -54.46,-0.25 -81.64,-0.25 -7.77,-27.52 -17.26,-54.5 -25.52,-81.85 -46.03,0 -92.07,0 -138.07,0 -7.56,27.59 -17.58,54.5 -25.84,81.89 -26.08,0.12 -52.17,-0.37 -78.21,0.33 42.72,-127.36 87.04,-254.27 131.9,-380.93zm34.26 111.37l0 0c-12.96,40.03 -26.78,79.85 -38.88,120.12 30.99,-1.18 61.98,-0.2 93.01,-0.53 -14.02,-46.57 -32.67,-92.16 -44.97,-139.26 -5.97,4.95 -7.04,12.68 -9.16,19.67z"/>
   </g>
   <path class="fil0" d="M1653.69 2505.46c92.19,0 184.43,0.04 276.63,0 0,23.18 0,46.37 0,69.55 -33.77,0.08 -67.5,-0.49 -101.23,0.41 1.06,103.44 0.12,206.92 0.69,310.36 -24.41,0.08 -48.82,-0.04 -73.23,0.12 0.78,-103.48 -0.53,-207 0.54,-310.48 -34.51,-0.9 -69.02,-0.25 -103.48,-0.45 0.73,-23.18 0.77,-46.37 0.08,-69.51z"/>
   <g>
    <path class="fil0" d="M2036.95 2505.18c28.09,0.53 56.17,0.16 84.26,0.28 43.5,127.07 89.62,253.33 132.76,380.52 -27.11,-0.49 -54.22,0 -81.32,-0.16 -8.51,-27.35 -17.05,-54.7 -25.92,-81.89 -39.46,0 -78.91,0 -118.37,0 -6.05,0.57 -12.8,-1.43 -18.36,1.51 -8.01,26.98 -17.17,53.64 -25.43,80.54 -26.49,-0.24 -52.98,-0.65 -79.44,0.25 43.79,-127.07 87.62,-254.15 131.82,-381.05zm-4.38 229.45l0 0 1.31 1.47c30.71,0.32 61.45,-0.62 92.16,0.53 -15.25,-46.49 -31.98,-92.65 -45.75,-139.54 -18.85,44.6 -30.63,92.11 -47.72,137.54z"/>
   </g>
   <path class="fil0" d="M2306.38 2505.46c29.6,0.04 59.21,-0.04 88.85,0 28.9,76.79 63.86,151.36 92.69,228.14 5.31,-4.29 6.66,-11.16 9.24,-17.09 29.15,-70.44 61.04,-139.78 88.1,-211.05 29.73,-0.08 59.45,0.08 89.17,-0.04 0,126.87 0,253.74 0,380.61 -23.26,-0.41 -46.52,-0.33 -69.79,-0.09 -0.45,-85.94 0.33,-171.92 -0.36,-257.82 -29.81,66.44 -59.62,133.04 -86.89,200.58 -18.31,0.78 -36.59,-0.04 -54.86,0.66 -28.13,-63.17 -55.04,-126.91 -81.74,-190.65 -1.1,-1.88 -3.27,-5.6 -4.37,-7.44 1.1,84.88 0.2,169.75 0.7,254.63 -23.56,-0.16 -47.11,-0.16 -70.66,0.17 -0.04,-126.87 0.13,-253.74 -0.08,-380.61z"/>
   <g>
    <path class="fil0" d="M2858.83 2505.42c28.05,0.12 56.14,0 84.22,0.04 33.04,99.84 70.08,198.38 103.85,297.98 10.1,27.47 18.16,55.64 28.83,82.87 -27.32,-0.9 -54.59,-0.41 -81.9,-0.57 -7.97,-27.52 -17.86,-54.38 -25.92,-81.81 -44.69,0.16 -89.37,-0.37 -134.02,0.28 -10.63,25.72 -18.2,54.09 -25.84,81.36 -26.7,0.82 -53.4,-0.45 -80.1,0.86 44.28,-126.78 86.93,-254.14 130.88,-381.01zm30.42 124.58l0 0c-12.6,35.08 -22.45,71.14 -35.78,105.98 31.28,0.65 62.6,0.04 93.88,0.32 -15.21,-46.24 -32.02,-92.03 -45.47,-138.8 -7.32,9.4 -8.3,21.71 -12.63,32.5z"/>
   </g>
   <path class="fil0" d="M753.47 3029.94c18.56,0.86 37.2,-1.1 55.69,1.15 -2.5,73.92 0.53,148 -1.68,221.92 36.71,1.39 73.51,0.29 110.23,0.66 -0.74,16.02 0,32.05 -0.66,48.12 -54.5,-1.19 -109.04,-0.61 -163.58,-0.41 -0.53,-90.44 -0.21,-180.96 0,-271.44z"/>
   <path class="fil0" d="M1019.51 3029.86c18.77,-0.08 37.53,0.41 56.3,-0.21 -0.04,90.65 0.04,181.25 -0.04,271.89 -18.36,-1.22 -36.8,0.7 -55.11,-0.65 -2.29,-89.87 0,-180.76 -1.15,-271.03z"/>
   <g>
    <path class="fil0" d="M1193.72 3029.74c41.14,1.26 82.35,0.24 123.48,0.49 26.74,0.9 53.64,17.17 61.78,43.62 9.85,27.6 4.54,67.83 -26.09,79.69 17.5,8.67 34.1,21.87 39.42,41.62 5.72,23.75 5.64,51.19 -8.88,72 -14.63,21.79 -41.17,32.99 -66.8,33.89 -40.97,0.49 -81.98,-0.53 -122.91,0.62 -0.08,-90.65 -0.2,-181.29 0,-271.93zm53.81 42.72l0 0c0,22.45 0,44.89 0,67.38 19.18,-0.45 38.35,-0.24 57.53,-0.98 31.76,-3.19 34.18,-58.18 2.65,-64.23 -19.91,-3.11 -40.15,-1.27 -60.18,-2.17zm0 109.78l0 0c-0.08,24.98 0.12,49.96 -0.12,74.94 24.32,-2.04 49.47,3.07 73.14,-4.04 28.09,-10.59 28.58,-57.78 0.29,-68.45 -24.17,-4.62 -48.9,-1.67 -73.31,-2.45z"/>
   </g>
   <g>
    <path class="fil0" d="M1503.88 3029.49c41.75,2.01 83.61,-0.2 125.36,1.35 24.04,0.98 47.87,14.07 59.04,35.86 13.65,27.27 16.43,60.26 5.56,88.96 -8.3,20.82 -26.5,36.47 -47.14,44.41 20.85,33.85 41.7,67.74 62.84,101.43 -21.18,-0.57 -42.4,-0.08 -63.58,-0.16 -18.64,-32.3 -37.49,-64.44 -56.1,-96.74 -10.91,-0.04 -21.83,-0.04 -32.75,0 0.74,32.3 0.09,64.6 0.45,96.94 -18.35,-0.81 -36.75,0.58 -55.07,-0.94 2.58,-90.31 -0.04,-180.75 1.39,-271.11zm53.44 48.98l0 0c0.16,27.07 0.24,54.09 0.04,81.16 21.96,-0.74 44.73,2.49 65.95,-4.87 29.27,-11.28 28.9,-61.12 -0.08,-72.48 -21.55,-5.69 -44.04,-0.95 -65.91,-3.81z"/>
   </g>
   <g>
    <path class="fil0" d="M1895.12 3030.06c19.5,0.25 39.04,0.54 58.54,-0.2 33.24,90.4 65.42,181.16 96.98,272.13 -17.9,-1.26 -35.89,-0.45 -53.8,-1.02 -5.77,-0.94 -5.03,-8.38 -6.99,-12.39 -5.11,-15.98 -10.35,-31.85 -15.13,-47.87 -33.57,0.28 -67.17,0 -100.78,0.24 -5.89,20.08 -12.72,39.95 -19.06,59.9 -17.74,0.9 -35.52,0.37 -53.27,-0.04 30.3,-90.56 63.54,-180.14 93.51,-270.75zm-5.85 164.49l0 0c23.47,-0.62 46.98,-0.21 70.49,0 -11.94,-35.16 -23.84,-70.33 -35.37,-105.65 -11.16,35.36 -22.36,70.77 -35.12,105.65z"/>
   </g>
   <g>
    <path class="fil0" d="M2154.45 3029.57c41.5,2.09 83.08,-0.57 124.58,1.52 24.12,0.86 47.88,14.39 58.84,36.22 11.16,22 16.72,48.12 10.26,72.41 -5.19,26.37 -25.23,48.57 -49.96,58.46 -1.52,5.03 3.06,9.16 5.19,13.37 19.42,29.44 37.45,59.78 56.13,89.71 -21.17,-1.47 -43.21,2.25 -63.9,-1.76 -18.97,-31.4 -37.82,-62.96 -55.93,-94.86 -10.63,-0.08 -21.26,-0.08 -31.85,-0.04 0.69,32.1 -0.37,64.23 0.57,96.37 -18.07,0.41 -36.18,-0.2 -54.21,0.7 0.41,-90.73 -0.21,-181.41 0.28,-272.1zm53.28 49.15l0 0c0.12,26.98 0.69,53.93 -0.13,80.91 23.55,-1.23 48.86,4.05 70.74,-7.44 23.71,-15.29 21.67,-58.39 -4.83,-69.79 -21.5,-5.52 -43.91,-1.31 -65.78,-3.68z"/>
   </g>
   <path class="fil0" d="M2411.75 3029.49c21.5,0.74 43.05,1.02 64.6,0.49 18.68,38.35 39.74,75.44 58.67,113.62 20.03,-37.61 38.22,-76.21 58.42,-113.74 20.61,0.41 41.21,0.69 61.82,-0.53 -29.36,54.95 -60.92,108.75 -90.93,163.38 -3.07,4.78 -2.21,10.55 -2.25,15.98 0.45,30.95 0.37,61.9 0.33,92.85 -18.56,-0.2 -37.08,-0.49 -55.56,0.33 -0.45,-34.91 0.77,-69.91 -0.66,-104.75 -31.89,-55.64 -64.19,-111.12 -94.44,-167.63z"/>
  </g>
  <g id="_2157283732736">
   <g>
    <path class="fil1" d="M1679.26 835.47c5.4,-5.11 11.16,-9.81 17.54,-13.7 14.11,15.58 31.32,27.85 45.92,42.97 43.74,44.53 84.67,93.31 110.84,150.46 15.04,31.98 23.87,66.52 29.15,101.36 0.86,32.3 2.98,65.37 -5.89,96.86 -15.78,62.75 -53.97,116.72 -95.51,165.21 -27.96,32.63 -51.35,69.3 -66.36,109.74 -7.68,17.17 -12.79,35.57 -22.6,51.72 -14.07,-56.46 -41.22,-109.7 -78.14,-154.67 -19.74,-25.35 -41.78,-49.02 -58.71,-76.45 -22.73,-36.92 -41.17,-77.32 -47.22,-120.62 -5.6,-51.59 -1.35,-105.07 19.01,-153.24 31.24,-78.95 88.8,-144.28 151.97,-199.64zm13.41 248.05l0 0c-2.9,17.71 -0.57,35.78 -3.23,53.56 -3.51,23.19 -2,46.78 -4.86,70.04 -5.85,73.27 1.67,146.66 7.77,219.6 7.76,-6.87 5.6,-18.24 6.74,-27.4 7.4,-71.87 12.31,-144.53 4.66,-216.61 0.04,-27.72 -4.41,-55.11 -5.44,-82.79 -0.81,-5.73 0.13,-12.96 -5.64,-16.4z"/>
   </g>
   <path class="fil1" d="M1117.53 1121.06c58.39,-2.13 117.47,7.11 171.56,29.47 60.59,26.01 113.74,71.8 143.8,130.96 27.1,52.87 39.61,112.52 42.27,171.56 -20.12,-2.25 -33.53,-19.26 -46.53,-32.96 -48.77,-56.79 -98.12,-115.7 -164.27,-152.95 29.92,34.67 64.84,64.93 96.69,97.88 29.6,28.33 56.87,58.96 86.39,87.33 -79.85,10.22 -164.69,-9.24 -229.12,-58.43 -49.31,-39.65 -80.14,-98.94 -93.47,-160.1 -8.09,-37 -8.01,-75.07 -7.32,-112.76z"/>
   <path class="fil1" d="M2125.49 1142.44c47.01,-15.58 96.81,-23.14 146.37,-21.38 0.81,45.05 1.63,90.84 -11.37,134.47 -18.36,66.31 -60.06,129.16 -122.7,160.72 -59.81,30.83 -129.15,44.56 -196.08,35.94 53.35,-52.46 105.68,-105.9 159,-158.39 8.38,-8.83 18.32,-16.48 24.53,-27.15 -67.17,39.04 -117.91,99.35 -167.92,157.57 -11.93,13.49 -26.29,28.87 -45.79,28.58 5.81,-67.17 20.2,-135.78 57.53,-193.02 35.9,-56.3 93.54,-96.45 156.43,-117.34z"/>
   <path class="fil1" d="M1006.37 1442.05c148.08,6.33 295.35,36.18 434,88.76 71.51,28.58 143.46,61.74 200.42,114.72 13.29,16.73 34.67,32.22 32.13,56.1 1.8,272.17 0.21,544.35 0.49,816.56 7.04,2.82 13.41,8.06 21.06,9.04 8.55,-3.93 16.52,-9 24.94,-13.21 -0.41,-274.91 0.12,-549.78 -0.57,-824.66 -0.57,-11.03 8.83,-18.39 14.55,-26.65 17.71,-23.64 42.32,-40.28 66.2,-57 71.02,-45.38 149.88,-77.11 230.55,-100.62 93.02,-28.25 189.18,-46.03 285.95,-54.62 21.55,-3.56 43.51,-2.13 65.3,-2.94 -0.9,276.95 -0.12,553.91 -0.49,830.87 -0.53,2.25 -1.56,6.79 -2.05,9.08 -124.41,7.44 -249.32,23.22 -368.54,60.96 -78.87,26.33 -157.12,59.98 -221.19,114.15 -12.18,9.16 -22.89,20.12 -35.2,29.15 -5.19,4.09 -11.24,8.01 -13.41,14.64 133.94,-78.54 283.58,-129.49 436.82,-153.49 37.98,-6.01 76.25,-8.99 114.4,-13.24 43.7,-0.7 87.45,-0.17 131.16,-0.21 -0.29,-251.93 -0.04,-503.87 -0.13,-755.76 19.43,-2.58 38.6,-6.67 57.82,-10.55 -0.17,289.71 -0.45,579.43 0.16,869.1 -107.2,-14.52 -216.08,-12.8 -323.69,-4.38 -72.98,6.5 -145.8,16.68 -217.14,33.65 -83,19.95 -165.71,46.16 -239.14,90.65 -13.17,10.42 -23.51,-12.52 -37.17,-8.1 -2.94,-3.68 -5.72,-7.69 -10.18,-9.44 -69.38,-35.04 -144.28,-57.49 -219.55,-75.81 -123.44,-28.04 -250.18,-38.63 -376.56,-37.94 -50.57,1.47 -101.23,2.62 -151.15,11.29 0.08,-289.43 0.08,-578.86 -0.25,-868.29 19.14,2.99 37.9,7.97 57.24,9.61 0.04,251.98 -0.08,503.95 0.08,755.93 48.41,1.43 97.19,-2.86 145.35,2.5 189.83,12.14 375.37,72.08 540.88,164.97 -9.94,-13.45 -24.7,-22 -36.64,-33.36 -57.61,-49.88 -125.8,-85.91 -196.86,-112.56 -130.3,-47.8 -269.23,-68.36 -407.47,-72.21 -1.59,-94.81 -0.12,-189.74 -0.57,-284.6 0,-187.38 -1.23,-374.76 -1.55,-562.09z"/>
  </g>
 </g>
</svg>
